<svg xmlns="http://www.w3.org/2000/svg" width="1284" height="817" viewBox="0 0 1284 817">
<g>
<path d="M 836.93 503.37 C820.16,507.67 799.34,505.08 786.89,497.13 C781.08,493.41 774.28,485.89 771.91,480.53 C770.86,478.16 769.63,473.47 769.17,470.11 L 768.33 464.00 L 791.86 464.00 L 793.39 469.28 C796.28,479.21 804.98,484.34 819.00,484.40 C834.06,484.47 842.14,479.94 843.53,470.67 C844.77,462.37 840.24,456.71 830.23,454.05 C827.88,453.42 820.23,452.08 813.23,451.05 C795.77,448.51 789.99,446.17 782.42,438.59 C775.48,431.63 773.00,425.96 773.00,417.00 C773.00,401.35 782.24,389.51 799.50,383.03 C807.74,379.94 824.04,379.12 832.72,381.35 C850.65,385.95 862.92,398.10 864.69,413.00 L 865.28 418.00 L 841.22 418.00 L 840.56 414.48 C839.67,409.72 834.86,404.49 829.48,402.44 C826.14,401.16 823.00,400.86 816.77,401.20 C803.24,401.94 797.00,406.56 797.00,415.82 C797.00,423.80 801.36,426.38 821.90,430.51 C845.99,435.36 853.41,438.38 860.74,446.34 C865.68,451.70 867.34,456.85 867.38,467.00 C867.42,477.53 865.09,483.71 858.33,491.01 C852.47,497.34 846.11,501.01 836.93,503.37 ZM 986.82 502.23 C982.73,503.83 978.73,504.39 969.50,504.63 C954.81,505.03 947.58,503.57 936.09,497.89 C914.41,487.19 902.86,465.64 904.25,438.49 C905.71,409.87 922.84,388.28 949.46,381.52 C957.19,379.55 976.44,379.54 984.75,381.50 C1000.90,385.31 1016.32,397.52 1023.28,412.00 C1025.26,416.12 1027.17,420.96 1027.52,422.75 L 1028.16 426.00 L 1004.06 426.00 L 1001.52 420.62 C998.50,414.26 990.81,406.73 984.22,403.68 C980.17,401.81 977.73,401.50 967.00,401.50 C955.38,401.50 954.11,401.69 948.89,404.26 C945.80,405.77 941.03,409.39 938.29,412.28 C931.86,419.09 928.95,426.60 928.25,438.22 C927.05,458.22 933.74,472.24 948.23,480.10 C954.33,483.41 954.82,483.50 966.00,483.50 C979.04,483.50 984.11,482.09 991.57,476.39 C994.02,474.53 996.24,473.00 996.51,473.00 C996.78,473.00 997.00,478.39 997.00,484.98 C997.00,485.35 997.00,485.71 997.00,486.07 C997.00,492.60 997.01,495.62 995.56,497.59 C994.24,499.40 991.70,500.31 986.82,502.23 ZM 898.00 382.00 L 898.00 503.00 L 874.00 503.00 L 874.00 382.00 ZM 1028.99 451.69 C1029.70,454.14 1029.99,463.87 1029.80,479.02 L 1029.50 502.53 L 1025.78 501.93 C1019.21,500.86 1012.85,496.09 1009.84,489.97 C1007.20,484.60 1007.14,484.06 1006.65,460.25 L 1006.14 436.00 L 1009.32 436.02 C1016.84,436.07 1026.74,443.96 1028.99,451.69 ZM 583.00 572.75 C578.78,575.63 570.07,575.84 564.98,573.18 C559.79,570.46 556.77,564.04 557.25,556.74 C557.84,547.73 563.14,542.08 571.78,541.25 C582.71,540.20 590.00,546.99 590.00,558.23 C590.00,564.62 587.59,569.62 583.00,572.75 ZM 996.16 452.46 C991.94,455.42 991.48,455.51 978.53,455.85 C970.91,456.04 964.99,455.79 964.66,455.25 C963.77,453.83 965.74,447.68 968.29,443.90 C969.54,442.05 972.35,439.52 974.53,438.28 C978.09,436.27 979.87,436.03 991.75,436.02 L 1005.00 436.00 L 1004.98 438.75 C1004.96,442.91 1001.00,449.05 996.16,452.46 ZM 566.91 569.72 C577.04,576.54 589.35,566.45 586.02,554.07 C584.43,548.19 580.09,545.00 573.65,545.00 C565.39,545.00 560.99,549.60 561.01,558.20 C561.03,563.68 562.66,566.85 566.91,569.72 ZM 612.22 562.30 C611.96,574.17 611.81,575.00 609.97,575.00 C608.09,575.00 608.00,574.25 608.00,558.43 L 608.00 541.87 L 610.69 542.18 C613.09,542.47 613.95,543.77 618.45,554.05 C621.24,560.41 623.99,566.66 624.56,567.94 C625.49,570.03 626.22,568.86 631.65,556.39 C637.07,543.94 637.97,542.47 640.35,542.18 L 643.00 541.87 L 643.00 558.43 C643.00,574.25 642.91,575.00 641.03,575.00 C639.19,575.00 639.04,574.17 638.78,562.25 L 638.50 549.50 L 633.01 562.29 C625.89,578.88 625.52,578.88 618.04,562.05 L 612.50 549.59 ZM 714.00 569.50 C714.00,573.72 713.65,575.00 712.50,575.00 C711.23,575.00 711.00,572.50 711.00,558.50 L 711.00 542.00 L 718.55 542.00 C730.04,542.00 734.00,544.77 734.00,552.80 C734.00,560.04 728.46,563.98 718.25,563.99 L 714.00 564.00 ZM 685.00 569.50 C685.00,573.72 684.65,575.00 683.50,575.00 C682.23,575.00 682.00,572.50 682.00,558.50 L 682.00 542.00 L 689.55 542.00 C697.60,542.00 702.16,543.56 703.97,546.94 C705.32,549.46 705.29,555.59 703.92,558.15 C702.37,561.04 695.29,563.95 689.75,563.98 L 685.00 564.00 ZM 652.27 571.00 C651.22,573.66 650.08,575.00 648.85,575.00 C647.83,575.00 647.00,574.85 647.00,574.68 C647.00,574.50 650.07,566.96 653.82,557.93 C658.95,545.57 661.07,541.50 662.38,541.50 C663.70,541.50 665.81,545.60 670.99,558.25 C677.06,573.09 677.62,575.00 675.91,575.00 C674.60,575.00 673.48,573.73 672.38,571.00 L 670.78 567.00 L 653.84 567.00 ZM 809.92 572.41 C807.39,574.54 805.84,575.00 801.17,574.98 C789.91,574.93 784.50,569.36 784.50,557.82 C784.50,550.64 785.94,547.63 791.27,543.65 C795.02,540.85 803.49,540.37 807.98,542.69 C812.36,544.96 816.96,551.33 814.58,551.82 C813.71,552.00 811.49,550.54 809.63,548.57 C806.58,545.33 805.76,545.00 800.85,545.00 C794.51,545.00 791.40,546.79 789.39,551.60 C784.93,562.28 791.94,573.08 802.41,571.67 C807.23,571.03 812.31,566.16 811.81,562.67 C811.54,560.80 810.76,560.46 806.18,560.20 C798.11,559.73 800.03,557.57 808.83,557.21 L 816.00 556.91 L 816.00 565.96 C816.00,573.33 815.72,575.00 814.50,575.00 C813.55,575.00 813.00,574.05 813.00,572.41 L 813.00 569.82 ZM 754.22 561.25 C753.99,572.56 753.68,575.00 752.47,575.00 C751.24,575.00 751.00,572.36 751.00,558.50 C751.00,542.62 751.08,542.00 753.02,542.00 C754.45,542.00 757.86,545.84 764.77,555.21 L 774.50 568.43 L 774.78 555.21 C775.04,542.83 775.18,542.00 777.03,542.00 C778.91,542.00 779.00,542.75 779.00,558.50 C779.00,574.37 778.92,575.00 776.99,575.00 C775.56,575.00 771.98,570.97 764.74,561.25 L 754.50 547.50 ZM 516.00 573.00 C516.00,574.89 515.33,575.00 504.00,575.00 L 492.00 575.00 L 492.00 542.00 L 504.00 542.00 C514.00,542.00 516.00,542.25 516.00,543.50 C516.00,544.73 514.22,545.00 506.00,545.00 L 496.00 545.00 L 496.00 556.00 L 505.00 556.00 C512.33,556.00 514.00,556.28 514.00,557.50 C514.00,558.72 512.33,559.00 505.00,559.00 L 496.00 559.00 L 496.00 571.00 L 506.00 571.00 C515.33,571.00 516.00,571.13 516.00,573.00 ZM 544.96 573.52 C543.39,574.33 539.67,575.00 536.70,575.00 C526.86,575.00 521.00,568.65 521.00,558.00 C521.00,554.76 521.72,551.07 522.75,549.02 C527.59,539.37 544.52,538.24 549.97,547.19 C552.48,551.31 552.50,552.00 550.07,552.00 C549.00,552.00 547.85,551.10 547.50,549.99 C545.83,544.73 534.28,543.21 529.10,547.57 C521.97,553.57 523.41,567.19 531.53,570.58 C538.15,573.34 544.68,571.46 547.51,565.98 C549.22,562.66 552.00,561.97 552.00,564.87 C552.00,567.37 548.48,571.70 544.96,573.52 ZM 714.00 545.00 L 714.00 560.00 L 719.75 559.97 C725.83,559.93 727.90,558.96 729.92,555.16 C730.88,553.36 730.90,552.18 730.02,550.04 C728.56,546.51 725.23,545.00 718.95,545.00 ZM 685.00 545.00 L 685.00 560.00 L 690.44 560.00 C697.08,560.00 701.25,557.11 701.25,552.50 C701.25,547.89 697.08,545.00 690.44,545.00 ZM 744.00 558.50 C744.00,574.33 743.92,575.00 742.00,575.00 C740.08,575.00 740.00,574.33 740.00,558.50 C740.00,542.67 740.08,542.00 742.00,542.00 C743.92,542.00 744.00,542.67 744.00,558.50 ZM 658.23 556.25 L 655.14 564.00 L 662.18 564.00 C668.46,564.00 669.14,563.81 668.57,562.25 C664.88,552.24 662.55,547.07 661.99,547.72 C661.62,548.15 659.93,551.99 658.23,556.25 Z" fill="rgb(14,78,69)"/>
<path d="M 717.67 304.50 C715.17,307.80 699.93,323.66 683.80,339.75 L 654.49 369.00 L 625.99 340.46 C610.32,324.76 598.28,312.20 599.24,312.56 C601.36,313.35 602.81,310.41 601.13,308.73 C600.51,308.11 600.01,304.88 600.03,301.55 C600.06,295.87 600.16,295.62 601.64,297.50 C603.16,299.45 603.19,299.43 602.58,297.00 L 601.94 294.50 L 603.59 296.75 C604.50,297.99 605.69,299.00 606.24,299.00 C606.79,299.00 606.63,298.22 605.87,297.26 C605.12,296.30 607.64,298.33 611.49,301.76 C617.91,307.50 628.07,313.73 633.87,315.49 C635.91,316.11 637.43,315.04 644.62,307.88 C649.23,303.29 653.00,299.25 653.00,298.90 C653.00,298.54 650.84,298.05 648.20,297.79 C640.44,297.05 632.59,292.80 625.07,285.26 C616.08,276.26 613.64,270.14 614.21,258.00 C614.55,250.66 615.07,248.61 618.05,243.00 C622.96,233.76 632.35,224.68 641.54,220.32 C648.57,216.98 649.41,216.82 657.73,217.15 C668.81,217.60 674.16,220.05 682.77,228.62 C693.89,239.67 697.57,252.83 693.10,265.49 L 690.99 271.47 L 699.38 279.87 L 707.78 288.27 L 709.53 285.60 C715.89,275.89 718.69,257.24 715.61,245.00 C711.01,226.69 697.44,209.90 679.89,200.81 C671.15,196.28 665.48,195.00 654.16,195.00 C637.60,195.00 623.94,200.80 609.53,213.96 C606.80,216.46 605.34,217.56 606.28,216.42 C608.67,213.54 608.44,212.29 605.94,214.56 C604.80,215.58 604.06,217.13 604.29,218.00 C604.55,218.98 604.05,219.57 602.96,219.57 C601.96,219.57 601.44,219.03 601.72,218.29 C601.99,217.58 601.72,217.00 601.11,217.00 C599.69,217.00 599.61,204.60 601.01,201.99 C601.78,200.54 601.61,199.87 600.26,199.08 C598.84,198.26 598.79,198.03 600.00,197.88 C600.83,197.78 601.95,197.64 602.50,197.57 C604.47,197.33 606.00,195.85 606.00,194.19 C606.01,190.76 623.33,181.84 635.77,178.87 C648.43,175.84 668.06,176.53 679.50,180.41 C700.75,187.60 716.82,201.97 726.58,222.50 C732.45,234.85 734.41,245.09 733.73,259.94 C732.95,277.03 727.91,291.01 717.67,304.50 ZM 653.56 340.07 C654.52,341.13 655.60,342.00 655.94,342.00 C656.29,342.00 664.06,334.46 673.20,325.25 C688.65,309.69 689.94,308.10 691.47,302.80 C692.52,299.14 692.87,295.75 692.43,293.30 C691.76,289.50 687.22,280.00 686.08,280.00 C685.75,280.00 678.19,287.31 669.28,296.25 C651.92,313.67 649.03,317.93 649.07,326.00 C649.09,331.19 651.03,337.28 653.56,340.07 ZM 664.14 283.85 C671.38,285.94 678.16,284.77 683.46,280.54 C685.35,279.03 685.18,278.73 678.46,271.87 C668.65,261.86 663.94,259.00 657.27,259.00 C651.41,259.00 646.30,260.72 644.03,263.46 C642.69,265.07 643.35,265.98 651.67,274.05 C657.34,279.55 662.04,283.25 664.14,283.85 ZM 402.93 495.08 C403.07,502.11 397.47,498.30 393.83,488.89 C392.13,484.50 391.69,480.89 391.49,469.50 C391.20,453.38 389.77,447.48 384.48,440.54 L 381.01 436.00 L 383.54 436.00 C384.93,436.00 387.51,436.61 389.28,437.36 C392.67,438.80 397.09,443.00 395.21,443.00 C394.59,443.00 394.33,443.98 394.62,445.25 C395.43,448.91 396.68,456.94 398.09,467.50 C399.13,475.38 399.49,477.55 400.39,481.50 C400.64,482.60 400.91,486.20 400.99,489.50 C401.10,493.83 401.38,494.94 402.00,493.50 C402.70,491.87 402.87,492.17 402.93,495.08 ZM 351.93 451.86 C347.61,453.24 342.00,453.35 342.00,452.07 C342.00,450.76 346.87,447.52 350.90,446.15 C352.77,445.52 356.50,445.00 359.18,445.00 C365.20,445.00 370.48,442.88 374.74,438.77 C376.51,437.05 378.25,435.92 378.60,436.26 C378.94,436.61 378.61,438.83 377.86,441.20 C376.62,445.11 376.14,445.56 372.50,446.17 C368.26,446.89 360.83,448.78 357.50,449.99 C356.40,450.40 353.89,451.24 351.93,451.86 Z" fill="rgb(131,189,1)"/>
<path d="M 530.46 503.47 C522.59,505.52 508.17,505.34 500.31,503.09 C492.46,500.84 483.78,495.65 479.26,490.50 C477.33,488.30 474.12,483.12 472.13,479.00 C468.60,471.71 468.50,471.17 468.50,460.00 C468.50,446.27 470.06,440.86 476.56,432.02 C481.36,425.50 488.64,420.11 497.09,416.82 C503.83,414.20 520.86,413.21 529.24,414.95 C542.16,417.63 555.29,427.82 560.49,439.22 C563.53,445.86 565.47,457.38 564.57,463.40 L 563.88 468.00 L 528.44 468.00 C508.95,468.00 493.00,468.24 493.00,468.54 C493.00,470.04 497.10,476.77 499.15,478.63 C503.97,483.01 508.16,484.46 516.00,484.45 C525.36,484.45 532.55,481.15 536.63,474.99 L 539.27 471.00 L 563.22 471.00 L 562.55 473.75 C559.30,487.14 546.06,499.41 530.46,503.47 ZM 632.20 503.87 C625.22,505.36 610.73,505.16 604.69,503.50 C584.53,497.96 571.00,480.42 571.00,459.84 C571.00,446.51 575.52,435.60 584.64,426.93 C595.05,417.04 606.08,413.40 623.15,414.23 C639.95,415.05 651.95,421.19 659.83,432.98 C665.44,441.39 667.33,447.73 667.42,458.50 L 667.50 467.50 L 631.75 467.76 C612.09,467.91 596.00,468.26 596.00,468.55 C596.00,468.84 596.91,470.87 598.03,473.05 C602.37,481.56 614.09,486.44 624.79,484.20 C631.57,482.78 637.45,479.04 640.17,474.44 L 642.20 471.00 L 654.10 471.00 L 654.52 471.00 C661.64,471.00 664.95,471.00 665.78,472.43 C666.50,473.68 665.33,476.03 663.14,480.41 L 662.99 480.71 C657.55,491.59 644.77,501.20 632.20,503.87 ZM 354.00 503.57 C346.78,505.12 337.35,505.23 329.00,503.87 C297.79,498.77 277.95,474.61 278.02,441.79 C278.04,430.34 280.22,420.96 285.09,411.26 C292.47,396.61 307.40,384.94 324.00,380.87 C331.14,379.12 350.94,379.13 358.00,380.89 C371.07,384.16 383.66,391.99 390.88,401.34 C395.19,406.94 400.42,417.48 401.50,422.75 L 402.16 426.00 L 377.93 426.00 L 375.91 421.28 C369.44,406.20 352.05,397.70 333.99,400.79 C313.21,404.36 302.05,418.58 302.01,441.54 C301.98,462.19 311.31,476.93 327.59,481.95 C341.10,486.13 355.60,483.68 366.75,475.33 L 370.00 472.90 L 370.00 498.07 L 365.25 500.12 C362.64,501.25 357.58,502.81 354.00,503.57 ZM 698.18 476.25 L 697.85 503.00 L 674.00 503.00 L 674.00 416.00 L 698.00 416.00 L 698.00 424.23 L 701.94 420.67 C713.68,410.07 738.51,412.57 749.86,425.49 C757.99,434.75 759.00,440.23 759.00,475.05 L 759.00 503.00 L 735.00 503.00 L 734.99 475.75 C734.99,460.34 734.55,446.91 733.97,444.83 C733.40,442.77 731.41,439.81 729.44,438.08 C726.30,435.33 725.25,435.00 719.53,435.00 C709.48,435.00 704.94,437.52 700.65,445.50 C698.63,449.26 698.48,451.11 698.18,476.25 ZM 438.39 501.42 C437.89,502.73 435.86,503.00 426.39,503.00 L 415.00 503.00 L 415.00 416.00 L 467.00 416.00 L 467.00 437.00 L 439.00 437.00 L 439.00 468.42 C439.00,485.70 438.73,500.55 438.39,501.42 ZM 613.78 328.11 L 587.34 301.50 L 582.72 292.00 C576.82,279.85 575.03,273.03 574.31,259.95 C573.08,237.36 580.78,216.97 596.70,200.69 C597.49,199.88 598.32,199.09 599.17,198.30 C599.28,198.48 599.64,198.72 600.26,199.08 C601.61,199.87 601.78,200.54 601.01,201.99 C599.61,204.60 599.69,217.00 601.11,217.00 C601.72,217.00 601.99,217.58 601.72,218.29 C601.44,219.03 601.96,219.57 602.96,219.57 C604.05,219.57 604.55,218.98 604.29,218.00 C604.06,217.13 604.80,215.58 605.94,214.56 C608.44,212.29 608.67,213.54 606.28,216.42 C605.34,217.56 606.80,216.46 609.53,213.96 C619.20,205.13 628.54,199.61 638.64,196.94 C629.29,199.43 620.85,204.39 612.56,212.13 C599.98,223.89 592.86,237.50 591.49,252.43 C589.75,271.36 600.41,293.13 616.57,305.85 C614.74,304.50 613.01,303.12 611.49,301.76 C607.64,298.33 605.12,296.30 605.87,297.26 C606.63,298.22 606.79,299.00 606.24,299.00 C605.69,299.00 604.50,297.99 603.59,296.75 L 601.94 294.50 L 602.58 297.00 C603.19,299.43 603.16,299.45 601.64,297.50 C600.16,295.62 600.06,295.87 600.03,301.55 C600.01,304.88 600.51,308.11 601.13,308.73 C602.81,310.41 601.36,313.35 599.24,312.56 C598.55,312.31 604.55,318.69 613.78,328.11 ZM 402.93 495.08 C402.87,492.17 402.70,491.87 402.00,493.50 C401.38,494.94 401.10,493.83 400.99,489.50 C400.91,486.20 400.64,482.60 400.39,481.50 C399.49,477.55 399.13,475.38 398.09,467.50 C396.68,456.94 395.43,448.91 394.62,445.25 C394.33,443.98 394.59,443.00 395.21,443.00 C396.74,443.00 394.11,440.23 391.25,438.42 C396.70,441.33 401.29,446.77 402.98,452.88 C403.54,454.87 403.99,466.74 403.99,479.25 L 404.00 502.00 L 400.75 501.96 C393.84,501.88 386.67,496.94 382.66,489.50 C380.64,485.76 380.48,483.88 380.19,460.61 L 379.87 435.73 L 382.31 436.00 L 381.01 436.00 L 384.48 440.54 C389.77,447.48 391.20,453.38 391.49,469.50 C391.69,480.89 392.13,484.50 393.83,488.89 C397.47,498.30 403.07,502.11 402.93,495.08 ZM 365.78 454.45 C363.12,455.56 358.65,456.00 350.03,456.00 L 338.00 456.00 L 338.00 453.46 C338.00,447.90 344.48,439.27 350.32,437.06 C351.86,436.48 358.99,436.00 366.14,436.00 L 379.16 436.00 L 378.46 439.25 C376.96,446.19 372.37,451.69 365.78,454.45 ZM 597.00 448.15 C597.00,448.62 607.12,449.00 619.50,449.00 L 620.42 449.00 C635.56,449.00 641.30,449.00 641.88,447.27 C642.24,446.21 640.66,444.50 638.13,441.75 L 637.87 441.48 C627.76,430.50 607.45,431.79 599.27,443.92 C598.02,445.78 597.00,447.68 597.00,448.15 ZM 494.00 447.53 C494.00,448.78 497.40,449.00 516.50,449.00 C528.88,449.00 539.00,448.62 539.00,448.15 C539.00,446.31 534.28,440.43 531.08,438.27 C523.84,433.40 512.28,432.77 504.33,436.83 C499.93,439.08 494.00,445.22 494.00,447.53 ZM 351.93 451.86 C353.89,451.24 356.40,450.40 357.50,449.99 C360.83,448.78 368.26,446.89 372.50,446.17 C376.14,445.56 376.62,445.11 377.86,441.20 C378.61,438.83 378.94,436.61 378.60,436.26 C378.25,435.92 376.51,437.05 374.74,438.77 C370.48,442.88 365.20,445.00 359.18,445.00 C356.50,445.00 352.77,445.52 350.90,446.15 C346.87,447.52 342.00,450.76 342.00,452.07 C342.00,453.35 347.61,453.24 351.93,451.86 ZM 599.56 197.95 C602.47,195.31 605.73,192.82 609.20,190.55 C607.20,192.00 606.00,193.29 606.00,194.19 C606.00,195.85 604.47,197.33 602.50,197.57 C601.95,197.64 600.83,197.78 600.00,197.88 C599.83,197.90 599.68,197.92 599.56,197.95 ZM 626.02 311.89 C628.96,313.36 631.76,314.66 633.53,315.39 C631.22,314.64 628.27,313.23 625.17,311.45 C625.45,311.60 625.73,311.75 626.02,311.89 ZM 637.38 351.87 L 654.49 369.00 L 654.45 369.04 ZM 637.28 314.63 C639.26,312.96 642.43,310.01 645.40,307.10 C645.14,307.36 644.88,307.62 644.62,307.88 C641.00,311.49 638.81,313.55 637.28,314.63 ZM 618.52 185.21 C624.09,182.45 629.92,180.28 635.63,178.90 C630.23,180.21 623.92,182.62 618.52,185.21 Z" fill="rgb(132,207,9)"/>
<path d="M 0.00 408.50 L 0.00 0.00 L 642.00 0.00 L 1284.00 0.00 L 1284.00 408.50 L 1284.00 817.00 L 642.00 817.00 L 0.00 817.00 L 0.00 408.50 ZM 516.00 573.00 C516.00,571.13 515.33,571.00 506.00,571.00 L 496.00 571.00 L 496.00 565.00 L 496.00 559.00 L 505.00 559.00 C512.33,559.00 514.00,558.72 514.00,557.50 C514.00,556.28 512.33,556.00 505.00,556.00 L 496.00 556.00 L 496.00 550.50 L 496.00 545.00 L 506.00 545.00 C514.22,545.00 516.00,544.73 516.00,543.50 C516.00,542.25 514.00,542.00 504.00,542.00 L 492.00 542.00 L 492.00 558.50 L 492.00 575.00 L 504.00 575.00 C515.33,575.00 516.00,574.89 516.00,573.00 ZM 544.96 573.52 C548.48,571.70 552.00,567.37 552.00,564.87 C552.00,561.97 549.22,562.66 547.51,565.98 C544.68,571.46 538.15,573.34 531.53,570.58 C523.41,567.19 521.97,553.57 529.10,547.57 C534.28,543.21 545.83,544.73 547.50,549.99 C547.85,551.10 549.00,552.00 550.07,552.00 C552.50,552.00 552.48,551.31 549.97,547.19 C544.52,538.24 527.59,539.37 522.75,549.02 C521.72,551.07 521.00,554.76 521.00,558.00 C521.00,568.65 526.86,575.00 536.70,575.00 C539.67,575.00 543.39,574.33 544.96,573.52 ZM 583.00 572.75 C587.59,569.62 590.00,564.62 590.00,558.23 C590.00,546.99 582.71,540.20 571.78,541.25 C563.14,542.08 557.84,547.73 557.25,556.74 C556.77,564.04 559.79,570.46 564.98,573.18 C570.07,575.84 578.78,575.63 583.00,572.75 ZM 612.22 562.30 L 612.50 549.59 L 618.04 562.05 C625.52,578.88 625.89,578.88 633.01,562.29 L 638.50 549.50 L 638.78 562.25 C639.04,574.17 639.19,575.00 641.03,575.00 C642.91,575.00 643.00,574.25 643.00,558.43 L 643.00 541.87 L 640.35 542.18 C637.97,542.47 637.07,543.94 631.65,556.39 C626.22,568.86 625.49,570.03 624.56,567.94 C623.99,566.66 621.24,560.41 618.45,554.05 C613.95,543.77 613.09,542.47 610.69,542.18 L 608.00 541.87 L 608.00 558.43 C608.00,574.25 608.09,575.00 609.97,575.00 C611.81,575.00 611.96,574.17 612.22,562.30 ZM 652.27 571.00 L 653.84 567.00 L 662.31 567.00 L 670.78 567.00 L 672.38 571.00 C673.48,573.73 674.60,575.00 675.91,575.00 C677.62,575.00 677.06,573.09 670.99,558.25 C665.81,545.60 663.70,541.50 662.38,541.50 C661.07,541.50 658.95,545.57 653.82,557.93 C650.07,566.96 647.00,574.50 647.00,574.68 C647.00,574.85 647.83,575.00 648.85,575.00 C650.08,575.00 651.22,573.66 652.27,571.00 ZM 685.00 569.50 L 685.00 564.00 L 689.75 563.98 C695.29,563.95 702.37,561.04 703.92,558.15 C705.29,555.59 705.32,549.46 703.97,546.94 C702.16,543.56 697.60,542.00 689.55,542.00 L 682.00 542.00 L 682.00 558.50 C682.00,572.50 682.23,575.00 683.50,575.00 C684.65,575.00 685.00,573.72 685.00,569.50 ZM 714.00 569.50 L 714.00 564.00 L 718.25 563.99 C728.46,563.98 734.00,560.04 734.00,552.80 C734.00,544.77 730.04,542.00 718.55,542.00 L 711.00 542.00 L 711.00 558.50 C711.00,572.50 711.23,575.00 712.50,575.00 C713.65,575.00 714.00,573.72 714.00,569.50 ZM 744.00 558.50 C744.00,542.67 743.92,542.00 742.00,542.00 C740.08,542.00 740.00,542.67 740.00,558.50 C740.00,574.33 740.08,575.00 742.00,575.00 C743.92,575.00 744.00,574.33 744.00,558.50 ZM 754.22 561.25 L 754.50 547.50 L 764.74 561.25 C771.98,570.97 775.56,575.00 776.99,575.00 C778.92,575.00 779.00,574.37 779.00,558.50 C779.00,542.75 778.91,542.00 777.03,542.00 C775.18,542.00 775.04,542.83 774.78,555.21 L 774.50 568.43 L 764.77 555.21 C757.86,545.84 754.45,542.00 753.02,542.00 C751.08,542.00 751.00,542.62 751.00,558.50 C751.00,572.36 751.24,575.00 752.47,575.00 C753.68,575.00 753.99,572.56 754.22,561.25 ZM 809.92 572.41 L 813.00 569.82 L 813.00 572.41 C813.00,574.05 813.55,575.00 814.50,575.00 C815.72,575.00 816.00,573.33 816.00,565.96 L 816.00 556.91 L 808.83 557.21 C800.03,557.57 798.11,559.73 806.18,560.20 C810.76,560.46 811.54,560.80 811.81,562.67 C812.31,566.16 807.23,571.03 802.41,571.67 C791.94,573.08 784.93,562.28 789.39,551.60 C791.40,546.79 794.51,545.00 800.85,545.00 C805.76,545.00 806.58,545.33 809.63,548.57 C811.49,550.54 813.71,552.00 814.58,551.82 C816.96,551.33 812.36,544.96 807.98,542.69 C803.49,540.37 795.02,540.85 791.27,543.65 C785.94,547.63 784.50,550.64 784.50,557.82 C784.50,569.36 789.91,574.93 801.17,574.98 C805.84,575.00 807.39,574.54 809.92,572.41 ZM 836.93 503.37 C846.11,501.01 852.47,497.34 858.33,491.01 C865.09,483.71 867.42,477.53 867.38,467.00 C867.34,456.85 865.68,451.70 860.74,446.34 C853.41,438.38 845.99,435.36 821.90,430.51 C801.36,426.38 797.00,423.80 797.00,415.82 C797.00,406.56 803.24,401.94 816.77,401.20 C823.00,400.86 826.14,401.16 829.48,402.44 C834.86,404.49 839.67,409.72 840.56,414.48 L 841.22 418.00 L 853.25 418.00 L 865.28 418.00 L 864.69 413.00 C862.92,398.10 850.65,385.95 832.72,381.35 C824.04,379.12 807.74,379.94 799.50,383.03 C782.24,389.51 773.00,401.35 773.00,417.00 C773.00,425.96 775.48,431.63 782.42,438.59 C789.99,446.17 795.77,448.51 813.23,451.05 C820.23,452.08 827.88,453.42 830.23,454.05 C840.24,456.71 844.77,462.37 843.53,470.67 C842.14,479.94 834.06,484.47 819.00,484.40 C804.98,484.34 796.28,479.21 793.39,469.28 L 791.86 464.00 L 780.09 464.00 L 768.33 464.00 L 769.17 470.11 C769.63,473.47 770.86,478.16 771.91,480.53 C774.28,485.89 781.08,493.41 786.89,497.13 C799.34,505.08 820.16,507.67 836.93,503.37 ZM 354.00 503.57 C357.58,502.81 362.64,501.25 365.25,500.12 L 370.00 498.07 L 370.00 485.48 L 370.00 472.90 L 366.75 475.33 C355.60,483.68 341.10,486.13 327.59,481.95 C311.31,476.93 301.98,462.19 302.01,441.54 C302.05,418.58 313.21,404.36 333.99,400.79 C352.05,397.70 369.44,406.20 375.91,421.28 L 377.93 426.00 L 390.04 426.00 L 402.16 426.00 L 401.50 422.75 C400.42,417.48 395.19,406.94 390.88,401.34 C383.66,391.99 371.07,384.16 358.00,380.89 C350.94,379.13 331.14,379.12 324.00,380.87 C307.40,384.94 292.47,396.61 285.09,411.26 C280.22,420.96 278.04,430.34 278.02,441.79 C277.95,474.61 297.79,498.77 329.00,503.87 C337.35,505.23 346.78,505.12 354.00,503.57 ZM 530.46 503.47 C546.06,499.41 559.30,487.14 562.55,473.75 L 563.22 471.00 L 551.24 471.00 L 539.27 471.00 L 536.63 474.99 C532.55,481.15 525.36,484.45 516.00,484.45 C508.16,484.46 503.97,483.01 499.15,478.63 C497.10,476.77 493.00,470.04 493.00,468.54 C493.00,468.24 508.95,468.00 528.44,468.00 L 563.88 468.00 L 564.57 463.40 C565.47,457.38 563.53,445.86 560.49,439.22 C555.29,427.82 542.16,417.63 529.24,414.95 C520.86,413.21 503.83,414.20 497.09,416.82 C488.64,420.11 481.36,425.50 476.56,432.02 C470.06,440.86 468.50,446.27 468.50,460.00 C468.50,471.17 468.60,471.71 472.13,479.00 C474.12,483.12 477.33,488.30 479.26,490.50 C483.78,495.65 492.46,500.84 500.31,503.09 C508.17,505.34 522.59,505.52 530.46,503.47 ZM 632.20 503.87 C644.77,501.20 657.55,491.59 662.99,480.71 C667.89,470.90 667.98,471.00 654.10,471.00 L 642.20 471.00 L 640.17 474.44 C637.45,479.04 631.57,482.78 624.79,484.20 C614.09,486.44 602.37,481.56 598.03,473.05 C596.91,470.87 596.00,468.84 596.00,468.55 C596.00,468.26 612.09,467.91 631.75,467.76 L 667.50 467.50 L 667.42 458.50 C667.33,447.73 665.44,441.39 659.83,432.98 C651.95,421.19 639.95,415.05 623.15,414.23 C606.08,413.40 595.05,417.04 584.64,426.93 C575.52,435.60 571.00,446.51 571.00,459.84 C571.00,480.42 584.53,497.96 604.69,503.50 C610.73,505.16 625.22,505.36 632.20,503.87 ZM 986.82 502.23 C997.30,498.12 997.00,498.62 997.00,484.98 C997.00,478.39 996.78,473.00 996.51,473.00 C996.24,473.00 994.02,474.53 991.57,476.39 C984.11,482.09 979.04,483.50 966.00,483.50 C954.82,483.50 954.33,483.41 948.23,480.10 C933.74,472.24 927.05,458.22 928.25,438.22 C928.95,426.60 931.86,419.09 938.29,412.28 C941.03,409.39 945.80,405.77 948.89,404.26 C954.11,401.69 955.38,401.50 967.00,401.50 C977.73,401.50 980.17,401.81 984.22,403.68 C990.81,406.73 998.50,414.26 1001.52,420.62 L 1004.06 426.00 L 1016.11 426.00 L 1028.16 426.00 L 1027.52 422.75 C1027.17,420.96 1025.26,416.12 1023.28,412.00 C1016.32,397.52 1000.90,385.31 984.75,381.50 C976.44,379.54 957.19,379.55 949.46,381.52 C922.84,388.28 905.71,409.87 904.25,438.49 C902.86,465.64 914.41,487.19 936.09,497.89 C947.58,503.57 954.81,505.03 969.50,504.63 C978.73,504.39 982.73,503.83 986.82,502.23 ZM 438.39 501.42 C438.73,500.55 439.00,485.70 439.00,468.42 L 439.00 437.00 L 453.00 437.00 L 467.00 437.00 L 467.00 426.50 L 467.00 416.00 L 441.00 416.00 L 415.00 416.00 L 415.00 459.50 L 415.00 503.00 L 426.39 503.00 C435.86,503.00 437.89,502.73 438.39,501.42 ZM 698.18 476.25 C698.48,451.11 698.63,449.26 700.65,445.50 C704.94,437.52 709.48,435.00 719.53,435.00 C725.25,435.00 726.30,435.33 729.44,438.08 C731.41,439.81 733.40,442.77 733.97,444.83 C734.55,446.91 734.99,460.34 734.99,475.75 L 735.00 503.00 L 747.00 503.00 L 759.00 503.00 L 759.00 475.05 C759.00,440.23 757.99,434.75 749.86,425.49 C738.51,412.57 713.68,410.07 701.94,420.67 L 698.00 424.23 L 698.00 420.12 L 698.00 416.00 L 686.00 416.00 L 674.00 416.00 L 674.00 459.50 L 674.00 503.00 L 685.93 503.00 L 697.85 503.00 L 698.18 476.25 ZM 898.00 442.50 L 898.00 382.00 L 886.00 382.00 L 874.00 382.00 L 874.00 442.50 L 874.00 503.00 L 886.00 503.00 L 898.00 503.00 L 898.00 442.50 ZM 1028.99 451.69 C1026.74,443.96 1016.84,436.07 1009.32,436.02 L 1006.14 436.00 L 1006.65 460.25 C1007.14,484.06 1007.20,484.60 1009.84,489.97 C1012.85,496.09 1019.21,500.86 1025.78,501.93 L 1029.50 502.53 L 1029.80 479.02 C1029.99,463.87 1029.70,454.14 1028.99,451.69 ZM 403.99 479.25 C403.99,466.74 403.54,454.87 402.98,452.88 C400.62,444.36 392.64,437.16 384.55,436.25 L 379.87 435.73 L 380.19 460.61 C380.48,483.88 380.64,485.76 382.66,489.50 C386.67,496.94 393.84,501.88 400.75,501.96 L 404.00 502.00 L 403.99 479.25 ZM 365.78 454.45 C372.37,451.69 376.96,446.19 378.46,439.25 L 379.16 436.00 L 366.14 436.00 C358.99,436.00 351.86,436.48 350.32,437.06 C344.48,439.27 338.00,447.90 338.00,453.46 L 338.00 456.00 L 350.03 456.00 C358.65,456.00 363.12,455.56 365.78,454.45 ZM 996.16 452.46 C1001.00,449.05 1004.96,442.91 1004.98,438.75 L 1005.00 436.00 L 991.75 436.02 C979.87,436.03 978.09,436.27 974.53,438.28 C972.35,439.52 969.54,442.05 968.29,443.90 C965.74,447.68 963.77,453.83 964.66,455.25 C964.99,455.79 970.91,456.04 978.53,455.85 C991.48,455.51 991.94,455.42 996.16,452.46 ZM 717.67 304.50 C727.91,291.01 732.95,277.03 733.73,259.94 C734.41,245.09 732.45,234.85 726.58,222.50 C716.82,201.97 700.75,187.60 679.50,180.41 C668.06,176.53 648.43,175.84 635.77,178.87 C621.53,182.27 606.52,190.65 596.70,200.69 C580.78,216.97 573.08,237.36 574.31,259.95 C575.03,273.03 576.82,279.85 582.72,292.00 L 587.34 301.50 L 620.89 335.27 L 654.45 369.04 L 683.78 339.77 C699.92,323.67 715.17,307.80 717.67,304.50 ZM 566.91 569.72 C562.66,566.85 561.03,563.68 561.01,558.20 C560.99,549.60 565.39,545.00 573.65,545.00 C580.09,545.00 584.43,548.19 586.02,554.07 C589.35,566.45 577.04,576.54 566.91,569.72 ZM 658.23 556.25 C659.93,551.99 661.62,548.15 661.99,547.72 C662.55,547.07 664.88,552.24 668.57,562.25 C669.14,563.81 668.46,564.00 662.18,564.00 L 655.14 564.00 L 658.23 556.25 ZM 685.00 552.50 L 685.00 545.00 L 690.44 545.00 C697.08,545.00 701.25,547.89 701.25,552.50 C701.25,557.11 697.08,560.00 690.44,560.00 L 685.00 560.00 L 685.00 552.50 ZM 714.00 552.50 L 714.00 545.00 L 718.95 545.00 C725.23,545.00 728.56,546.51 730.02,550.04 C730.90,552.18 730.88,553.36 729.92,555.16 C727.90,558.96 725.83,559.93 719.75,559.97 L 714.00 560.00 L 714.00 552.50 ZM 494.00 447.53 C494.00,445.22 499.93,439.08 504.33,436.83 C512.28,432.77 523.84,433.40 531.08,438.27 C534.28,440.43 539.00,446.31 539.00,448.15 C539.00,448.62 528.88,449.00 516.50,449.00 C497.40,449.00 494.00,448.78 494.00,447.53 ZM 597.00 448.15 C597.00,447.68 598.02,445.78 599.27,443.92 C607.45,431.79 627.76,430.50 637.87,441.48 C644.89,449.09 645.12,449.00 619.50,449.00 C607.12,449.00 597.00,448.62 597.00,448.15 ZM 653.56 340.07 C651.03,337.28 649.09,331.19 649.07,326.00 C649.03,317.93 651.92,313.67 669.28,296.25 C678.19,287.31 685.75,280.00 686.08,280.00 C687.22,280.00 691.76,289.50 692.43,293.30 C692.87,295.75 692.52,299.14 691.47,302.80 C689.94,308.10 688.65,309.69 673.20,325.25 C664.06,334.46 656.29,342.00 655.94,342.00 C655.60,342.00 654.52,341.13 653.56,340.07 ZM 626.02 311.89 C604.77,301.25 589.43,274.85 591.49,252.43 C592.86,237.50 599.98,223.89 612.56,212.13 C625.19,200.35 638.16,195.00 654.16,195.00 C665.48,195.00 671.15,196.28 679.89,200.81 C697.44,209.90 711.01,226.69 715.61,245.00 C718.69,257.24 715.89,275.89 709.53,285.60 L 707.78 288.27 L 699.38 279.87 L 690.99 271.47 L 693.10 265.49 C697.57,252.83 693.89,239.67 682.77,228.62 C674.16,220.05 668.81,217.60 657.73,217.15 C649.41,216.82 648.57,216.98 641.54,220.32 C632.35,224.68 622.96,233.76 618.05,243.00 C615.07,248.61 614.55,250.66 614.21,258.00 C613.64,270.14 616.08,276.26 625.07,285.26 C632.59,292.80 640.44,297.05 648.20,297.79 C650.84,298.05 653.00,298.54 653.00,298.90 C653.00,300.03 636.51,316.00 635.34,316.00 C634.73,316.00 630.54,314.15 626.02,311.89 ZM 664.14 283.85 C662.04,283.25 657.34,279.55 651.67,274.05 C643.35,265.98 642.69,265.07 644.03,263.46 C646.30,260.72 651.41,259.00 657.27,259.00 C663.94,259.00 668.65,261.86 678.46,271.87 C685.18,278.73 685.35,279.03 683.46,280.54 C678.16,284.77 671.38,285.94 664.14,283.85 Z" fill="rgb(254,254,254)"/>
</g>
</svg>